<svg xmlns="http://www.w3.org/2000/svg" viewBox="0 0 24 24" width="24" height="24">
  <path fill="#F05032" d="M23.3 10.9L13.1.7C12.7.3 12-.1 11.4-.1s-1.3.4-1.7.8L6.8 3.5l3.2 3.2c.8-.3 1.8-.1 2.4.5.6.6.8 1.5.5 2.3l3.2 3.2c.8-.3 1.8-.1 2.4.5.8.8.8 2 0 2.8s-2 .8-2.8 0c-.6-.6-.8-1.5-.5-2.3L12 10.2v6.6c.3.2.6.5.8.9.8.8.8 2 0 2.8s-2 .8-2.8 0c-.8-.8-.8-2 0-2.8.3-.3.6-.6.9-.8V9.7c-.3-.2-.6-.5-.9-.8-.6-.6-.8-1.5-.5-2.3L6.3 3.4.7 9c-.9.9-.9 2.5 0 3.4l10.2 10.2c.5.5 1.1.7 1.7.7s1.3-.2 1.7-.7l9-9c1-1 1-2.6 0-3.5z"/>
</svg>
