<svg xmlns="http://www.w3.org/2000/svg" viewBox="0 0 24 24" width="24" height="24">
  <path fill="#24292e" d="M12 .3C5.4.3 0 5.7 0 12.4c0 5.3 3.5 9.9 8.3 11.5.6.1.8-.3.8-.6 0-.3 0-1.1 0-2.2-3.3.7-4-1.6-4-1.6-.5-1.4-1.3-1.8-1.3-1.8-1.1-.7.1-.7.1-.7 1.2.1 1.9 1.2 1.9 1.2 1.1 1.9 2.8 1.3 3.5 1 .1-.8.4-1.3.8-1.6-2.7-.3-5.5-1.3-5.5-6 0-1.3.5-2.4 1.3-3.2-.1-.3-.6-1.6.1-3.2 0 0 1-.3 3.3 1.2.9-.3 2-.4 3-.4s2.1.1 3 .4c2.3-1.5 3.3-1.2 3.3-1.2.7 1.6.2 2.8.1 3.2.9.8 1.3 1.9 1.3 3.2 0 4.6-2.8 5.6-5.5 5.9.4.4.8 1.1.8 2.2 0 1.6 0 2.9 0 3.3 0 .3.2.7.8.6C20.5 22.3 24 17.7 24 12.4 24 5.7 18.6.3 12 .3z"/>
</svg>
